<?xml version="1.0" standalone="no"?>
<!DOCTYPE svg PUBLIC "-//W3C//DTD SVG 20010904//EN"
 "http://www.w3.org/TR/2001/REC-SVG-20010904/DTD/svg10.dtd">
<svg version="1.0" xmlns="http://www.w3.org/2000/svg"
 width="4501.000000pt" height="4501.000000pt" viewBox="0 0 4501.000000 4501.000000"
 preserveAspectRatio="xMidYMid meet">
<metadata>
Created by potrace 1.14, written by Peter Selinger 2001-2017
</metadata>
<g transform="translate(0.000000,4501.000000) scale(0.100000,-0.100000)"
fill="#000000" stroke="none">
<path d="M28452 37859 c-38 -19 -62 -35 -59 -43 3 -7 31 -93 62 -192 31 -98
72 -226 91 -284 42 -134 181 -589 199 -655 8 -27 26 -90 40 -140 37 -125 133
-465 156 -555 11 -41 22 -82 24 -90 2 -8 10 -36 18 -62 8 -27 13 -48 11 -48
-3 0 0 -8 5 -18 6 -11 12 -30 15 -43 5 -28 7 -35 76 -309 73 -291 195 -796
205 -851 5 -24 48 -221 65 -294 27 -115 87 -402 106 -505 3 -14 18 -91 34
-171 16 -80 32 -163 36 -185 3 -21 12 -66 19 -99 8 -33 17 -80 20 -105 3 -25
8 -52 10 -60 3 -8 7 -31 9 -50 3 -19 7 -51 11 -70 3 -19 8 -48 11 -65 3 -16 7
-43 9 -60 3 -16 16 -100 30 -185 25 -148 86 -565 100 -679 4 -30 8 -61 10 -70
1 -9 6 -43 9 -76 9 -76 25 -219 31 -265 7 -54 25 -228 31 -295 2 -33 6 -71 9
-85 2 -14 7 -70 11 -125 3 -55 8 -108 10 -117 1 -9 6 -61 9 -115 4 -54 8 -114
10 -133 2 -19 6 -93 10 -165 4 -71 8 -155 10 -185 25 -399 25 -1231 0 -1520
-3 -40 -7 -92 -20 -310 -15 -237 -28 -391 -40 -480 -4 -27 -12 -87 -20 -152
-3 -24 -10 -68 -15 -98 -5 -30 -11 -75 -14 -100 -4 -25 -8 -56 -11 -70 -3 -14
-8 -41 -11 -60 -2 -19 -9 -55 -14 -80 -5 -25 -12 -61 -15 -80 -3 -19 -8 -46
-10 -60 -3 -14 -7 -34 -9 -45 -24 -129 -124 -574 -131 -585 -2 -4 -6 -17 -8
-31 -9 -47 -107 -395 -152 -539 -25 -80 -47 -152 -49 -160 -30 -117 -259 -711
-342 -887 -19 -40 -34 -75 -34 -77 0 -9 -203 -431 -239 -496 -4 -8 -12 -24
-18 -35 -26 -53 -100 -189 -147 -270 -28 -49 -55 -98 -61 -108 -103 -182 -410
-646 -522 -787 -6 -8 -55 -71 -109 -140 -88 -113 -244 -301 -283 -341 -9 -9
-50 -53 -91 -99 -84 -94 -333 -346 -426 -430 -33 -30 -80 -73 -105 -96 -284
-260 -735 -588 -1064 -775 -268 -152 -477 -255 -736 -364 -74 -31 -143 -60
-154 -65 -11 -4 -36 -13 -55 -20 -19 -7 -48 -18 -65 -25 -61 -26 -453 -153
-525 -170 -8 -2 -87 -22 -175 -45 -88 -22 -176 -43 -195 -46 -19 -3 -43 -7
-52 -10 -10 -3 -30 -7 -45 -10 -16 -3 -35 -7 -43 -9 -8 -3 -33 -7 -55 -10 -22
-4 -47 -8 -55 -10 -8 -2 -28 -6 -45 -9 -68 -10 -121 -19 -136 -21 -9 -2 -40
-6 -70 -10 -30 -3 -61 -8 -69 -10 -8 -2 -44 -7 -80 -10 -36 -3 -81 -8 -100
-10 -19 -2 -66 -7 -105 -10 -38 -4 -83 -8 -100 -10 -211 -26 -1223 -25 -1355
0 -11 2 -61 6 -112 10 -51 3 -104 8 -118 10 -14 2 -54 7 -90 11 -36 3 -76 7
-90 9 -14 2 -50 6 -80 10 -30 3 -66 8 -80 10 -14 2 -72 11 -130 20 -141 22
-133 21 -235 40 -49 9 -99 18 -110 20 -37 5 -89 16 -225 46 -816 181 -1601
481 -2285 872 -228 130 -576 350 -583 368 -2 5 -8 9 -13 9 -8 0 -155 103 -224
157 -16 13 -35 27 -40 31 -34 24 -92 68 -105 79 -83 67 -268 220 -281 232 -9
9 -49 45 -90 81 -286 252 -625 611 -854 904 -16 21 -35 44 -40 50 -15 16 -142
188 -200 271 -28 39 -53 75 -58 80 -21 25 -237 363 -237 370 0 2 -20 37 -44
77 -142 235 -298 551 -433 873 -30 72 -61 150 -69 175 -8 25 -19 54 -24 65 -5
11 -29 79 -54 150 -129 374 -243 818 -327 1275 -26 144 -24 132 -49 280 -12
69 -23 136 -25 150 -3 14 -7 50 -10 80 -4 30 -8 62 -10 70 -3 8 -11 75 -20
148 -8 73 -17 152 -20 175 -13 114 -22 210 -31 332 -3 50 -7 106 -9 125 -2 19
-6 82 -10 140 -3 58 -8 132 -10 164 -24 307 -23 1412 0 1666 2 25 7 99 10 165
10 189 19 331 31 465 15 174 23 266 29 320 4 37 15 152 20 210 4 47 16 150 20
176 2 12 6 48 10 80 9 75 65 511 70 544 2 14 7 48 10 75 4 28 8 57 10 65 2 8
7 38 10 65 4 28 8 57 10 65 2 8 7 35 10 60 8 58 14 95 40 250 9 52 18 107 21
123 5 33 13 75 18 102 2 11 7 40 11 65 10 63 9 56 49 265 14 72 28 144 31 160
9 54 15 81 36 181 11 55 23 113 25 129 3 17 12 59 20 93 8 35 23 108 34 161
19 91 23 108 35 162 2 11 6 28 9 37 3 9 7 28 10 42 11 60 96 420 161 680 64
253 180 666 266 949 56 182 58 169 -29 196 -56 18 -69 15 -77 -21 -2 -10 -38
-111 -80 -224 -91 -246 -312 -903 -390 -1160 -84 -278 -239 -823 -251 -884 -2
-10 -8 -33 -13 -50 -29 -89 -170 -672 -226 -935 -2 -9 -15 -68 -29 -131 -51
-236 -144 -714 -171 -880 -3 -19 -8 -48 -12 -65 -3 -16 -7 -39 -8 -50 -2 -11
-8 -47 -13 -80 -6 -33 -13 -73 -16 -90 -2 -16 -11 -73 -20 -125 -8 -52 -18
-117 -22 -145 -3 -27 -8 -59 -10 -70 -2 -11 -7 -38 -9 -60 -3 -22 -12 -89 -21
-150 -8 -60 -17 -123 -19 -140 -2 -16 -7 -50 -10 -75 -4 -25 -8 -63 -10 -84
-3 -37 -12 -110 -20 -166 -2 -14 -6 -54 -10 -90 -7 -80 -15 -154 -20 -200 -2
-19 -7 -69 -10 -110 -4 -41 -8 -91 -10 -110 -2 -19 -6 -71 -10 -115 -3 -44 -8
-102 -10 -130 -2 -27 -7 -99 -10 -160 -4 -60 -8 -132 -10 -160 -26 -346 -26
-1337 0 -1765 12 -198 40 -512 60 -660 2 -19 7 -55 9 -80 7 -59 36 -278 41
-310 18 -111 37 -231 41 -259 2 -18 23 -124 45 -235 22 -110 42 -212 44 -226
3 -14 21 -90 41 -170 19 -80 37 -152 39 -160 11 -53 96 -334 146 -484 208
-624 524 -1265 901 -1829 113 -170 140 -210 149 -217 3 -3 20 -26 37 -52 33
-48 271 -359 281 -368 4 -3 29 -32 56 -65 28 -33 52 -62 55 -65 3 -3 30 -34
60 -70 225 -266 634 -667 934 -915 27 -22 58 -49 70 -60 12 -11 38 -31 56 -45
19 -14 48 -37 64 -51 189 -159 715 -519 971 -664 462 -261 799 -425 1205 -587
152 -60 471 -177 500 -183 3 -1 55 -17 115 -37 95 -32 366 -112 414 -123 9 -3
50 -13 91 -25 111 -29 532 -125 600 -136 8 -1 51 -9 95 -18 44 -8 96 -17 115
-21 146 -25 255 -42 315 -50 22 -3 56 -7 75 -10 129 -17 209 -27 345 -40 33
-3 78 -8 100 -10 22 -2 85 -7 140 -11 55 -3 116 -8 135 -10 169 -17 857 -23
1100 -10 185 10 373 24 435 31 87 11 125 15 180 20 33 4 67 8 75 10 8 3 42 7
76 10 33 3 72 8 85 10 13 3 40 8 59 11 46 7 80 13 105 18 11 2 40 7 65 11 25
4 52 9 60 10 8 1 35 6 60 10 61 10 60 10 190 40 63 14 126 28 140 31 14 3 113
28 220 55 838 218 1628 565 2320 1018 200 131 453 312 581 415 14 12 41 32 59
46 19 14 41 32 50 40 8 8 36 31 60 50 25 19 59 47 75 61 125 109 217 190 260
229 95 86 422 416 521 525 322 357 608 730 843 1100 35 55 71 111 80 125 10
14 50 81 90 150 41 69 81 136 90 150 8 14 24 41 34 60 11 19 45 82 77 140 31
58 97 186 146 285 82 166 115 235 181 385 14 30 31 69 38 85 101 219 340 886
396 1105 5 19 11 42 13 50 3 8 18 65 35 125 17 61 33 120 36 133 2 13 11 46
19 75 8 29 17 63 20 77 2 14 12 57 21 95 9 39 19 81 21 95 3 14 9 41 14 60 12
46 63 312 86 450 3 14 7 36 9 50 3 14 7 43 11 65 3 22 7 51 9 65 4 24 28 193
40 290 4 25 8 61 10 80 1 19 6 60 9 90 13 104 15 125 21 195 3 39 8 90 10 115
3 25 7 86 10 135 3 50 8 126 11 170 6 91 6 1091 0 1145 -2 19 -7 82 -11 140
-4 58 -8 128 -10 155 -2 28 -6 91 -9 140 -3 50 -8 117 -11 150 -3 33 -7 94
-10 135 -3 41 -8 89 -10 105 -2 17 -6 55 -10 85 -12 110 -33 278 -40 320 -2
14 -7 48 -10 75 -3 28 -7 57 -10 65 -2 8 -6 38 -9 66 -5 48 -25 177 -52 334
-3 19 -8 46 -10 60 -2 14 -13 77 -24 140 -12 63 -24 131 -26 150 -3 19 -9 49
-14 65 -5 17 -12 52 -15 79 -3 27 -8 53 -10 57 -3 4 -7 24 -11 45 -3 22 -12
66 -19 99 -8 33 -16 71 -19 85 -8 45 -86 393 -102 455 -9 33 -18 69 -20 80 -4
22 -47 191 -88 345 -27 102 -131 467 -191 670 -56 190 -275 843 -348 1040 -36
96 -84 227 -107 290 -22 63 -45 124 -50 135 -5 11 -63 153 -129 315 -66 162
-129 318 -141 345 -102 233 -132 300 -195 440 -133 294 -202 440 -327 691
-121 241 -242 478 -278 539 -9 17 -34 62 -55 100 -105 195 -365 635 -374 634
-3 0 -34 -14 -69 -30z"/>
<path d="M26231 37843 c4 -21 10 -53 14 -71 3 -18 12 -65 21 -105 9 -39 22
-101 30 -137 7 -36 16 -76 19 -90 3 -14 7 -36 10 -50 3 -14 12 -56 20 -95 8
-38 20 -90 25 -115 5 -25 11 -54 14 -65 2 -11 11 -56 21 -100 9 -44 22 -109
30 -145 8 -36 17 -76 19 -90 3 -14 23 -110 46 -215 22 -104 45 -212 50 -240 6
-27 19 -90 30 -140 11 -49 27 -126 36 -170 8 -44 24 -116 34 -160 10 -45 21
-92 24 -105 2 -14 16 -79 31 -145 15 -66 29 -131 31 -145 3 -14 7 -33 10 -42
3 -10 8 -30 10 -45 3 -16 14 -68 25 -118 12 -49 23 -101 25 -115 3 -14 10 -43
16 -65 5 -22 12 -51 15 -65 5 -31 88 -400 109 -490 9 -36 18 -75 20 -87 2 -12
27 -120 54 -240 28 -120 52 -227 54 -238 3 -11 14 -63 26 -115 12 -52 30 -133
41 -180 10 -47 27 -123 38 -170 60 -265 113 -498 117 -520 3 -14 14 -62 24
-107 11 -46 22 -93 24 -105 3 -13 19 -86 36 -163 18 -77 33 -147 35 -155 2 -8
9 -37 15 -65 16 -70 17 -72 34 -150 9 -38 36 -160 61 -270 25 -110 48 -209 50
-220 13 -62 26 -121 39 -172 8 -32 17 -69 20 -83 6 -35 39 -178 81 -355 20
-82 38 -159 40 -170 3 -11 30 -121 61 -245 30 -124 57 -232 59 -240 7 -29 56
-215 62 -234 4 -16 8 -14 20 15 71 165 176 559 222 834 6 33 13 74 16 90 2 17
8 50 11 75 3 25 8 53 10 64 2 10 6 44 9 75 4 31 8 66 10 79 2 12 7 62 11 110
3 48 8 96 10 107 25 134 25 1126 0 1285 -3 14 -7 61 -10 105 -4 44 -8 96 -11
115 -2 19 -11 94 -20 165 -8 72 -17 141 -19 155 -4 25 -23 146 -32 205 -3 17
-7 37 -9 45 -2 8 -6 31 -9 50 -26 165 -81 424 -140 660 -25 96 -54 207 -65
245 -12 39 -23 79 -25 90 -8 38 -85 281 -150 470 -301 882 -734 1696 -1200
2255 -110 132 -320 350 -337 350 -4 0 -3 -17 2 -37z"/>
<path d="M22249 31956 c-2 -2 -26 -7 -53 -10 -95 -13 -237 -72 -316 -130 -60
-45 -141 -128 -180 -186 -20 -30 -241 -464 -491 -965 -250 -500 -457 -912
-460 -915 -12 -11 -57 -157 -64 -210 -13 -95 -13 -132 0 -225 25 -174 96 -315
216 -432 72 -69 115 -99 229 -157 52 -27 122 -63 155 -81 33 -18 146 -76 250
-130 105 -54 231 -119 280 -145 50 -26 171 -89 270 -140 99 -51 243 -125 320
-165 300 -156 351 -182 375 -189 110 -32 147 -38 230 -39 125 -3 192 7 280 39
144 52 290 162 364 275 16 24 37 56 48 71 10 15 18 33 18 41 0 7 4 17 9 22 8
9 55 101 401 780 78 154 191 375 250 490 330 644 341 670 342 840 1 81 -1 109
-16 183 -35 170 -156 353 -298 450 -42 29 -267 141 -563 282 -84 40 -167 80
-545 262 -80 39 -194 94 -255 123 -60 29 -173 83 -250 120 -190 91 -216 102
-288 121 -55 15 -248 29 -258 20z m170 -807 c47 -23 127 -61 176 -84 50 -24
142 -67 205 -97 195 -93 898 -427 1030 -490 68 -32 126 -60 127 -62 2 -2 -65
-138 -148 -302 -83 -164 -289 -571 -456 -904 -168 -333 -308 -607 -310 -610
-2 -2 -55 21 -116 53 -62 31 -209 107 -327 168 -213 109 -533 273 -930 477
-113 57 -210 110 -217 116 -9 8 82 197 379 791 215 429 414 826 442 883 27 56
52 102 54 102 2 0 43 -19 91 -41z"/>
<path d="M19420 29034 c-47 -7 -139 -29 -205 -48 -66 -20 -129 -39 -140 -41
-11 -3 -49 -14 -85 -24 -136 -41 -347 -103 -399 -117 -58 -16 -306 -88 -356
-103 -16 -6 -181 -53 -365 -106 -381 -110 -411 -121 -494 -172 -75 -46 -86
-55 -154 -125 -66 -68 -82 -91 -129 -183 -57 -112 -73 -177 -79 -320 -4 -118
-3 -123 107 -525 45 -162 82 -302 84 -311 2 -8 11 -40 20 -70 9 -30 18 -63 20
-74 3 -11 51 -191 109 -400 57 -209 107 -393 111 -410 12 -44 12 -45 15 -47 1
-2 3 -10 5 -19 13 -70 100 -359 118 -397 86 -175 194 -286 352 -362 125 -61
208 -79 350 -76 125 3 111 0 555 117 41 11 83 22 92 24 9 2 183 46 385 99 487
126 618 159 803 207 265 67 412 160 529 334 52 78 104 199 117 275 14 76 8
269 -10 335 -9 33 -30 110 -46 170 -16 61 -56 214 -90 340 -34 127 -75 280
-90 340 -16 61 -48 180 -70 265 -23 85 -54 205 -70 265 -16 61 -47 180 -70
265 -121 457 -121 455 -197 572 -118 181 -355 317 -568 327 -33 1 -62 4 -65 5
-3 2 -43 -3 -90 -10z m101 -784 c4 -14 30 -110 58 -215 28 -104 87 -325 131
-490 45 -165 97 -358 116 -430 19 -71 41 -152 49 -180 7 -27 27 -102 43 -165
17 -63 48 -180 70 -260 58 -212 55 -197 29 -203 -12 -2 -85 -21 -162 -42 -77
-20 -183 -48 -235 -61 -52 -14 -189 -50 -305 -80 -115 -31 -253 -67 -305 -80
-52 -14 -129 -34 -170 -45 -41 -12 -133 -36 -205 -54 -71 -18 -174 -45 -228
-59 -115 -31 -117 -31 -117 -9 0 9 -5 30 -10 47 -13 39 -129 466 -135 495 -2
12 -6 25 -9 29 -3 5 -7 20 -9 33 -3 14 -15 58 -27 98 -12 41 -23 81 -25 90 -3
15 -18 71 -50 186 -10 38 -116 425 -140 515 -2 8 -12 42 -21 75 -9 33 -17 65
-19 70 -1 6 -4 17 -8 25 -12 35 -60 231 -56 234 2 2 38 12 79 24 41 11 228 66
415 122 187 55 347 103 355 105 8 2 78 22 155 45 77 23 154 46 170 50 43 12
176 52 365 108 91 28 171 49 179 49 8 -1 18 -13 22 -27z"/>
<path d="M22378 26988 c-302 -35 -561 -263 -638 -563 -20 -79 -23 -119 -35
-570 -3 -104 -7 -266 -10 -360 -3 -93 -8 -249 -10 -345 -2 -96 -7 -274 -11
-395 -8 -305 -10 -593 -3 -635 49 -285 266 -525 541 -600 96 -26 115 -27 583
-45 130 -5 260 -11 475 -20 63 -3 169 -7 235 -10 213 -8 418 -17 480 -20 116
-6 330 -6 355 0 14 3 38 8 53 10 251 46 498 284 561 540 22 86 25 119 31 320
6 182 9 263 20 570 7 195 11 302 20 575 4 107 8 231 11 275 2 44 6 199 9 345
5 283 2 313 -47 440 -93 237 -306 413 -561 461 -64 12 -117 13 -1082 24 -313
3 -646 7 -740 8 -93 2 -200 -1 -237 -5z m897 -762 c363 -3 740 -5 837 -6 l177
0 -4 -132 c-2 -73 -7 -225 -10 -338 -3 -113 -8 -257 -10 -320 -3 -63 -7 -201
-10 -305 -3 -105 -8 -246 -10 -315 -2 -69 -7 -215 -11 -325 -3 -110 -7 -222
-7 -250 l-2 -50 -95 1 c-86 1 -440 12 -600 19 -36 1 -150 6 -255 9 -104 4
-230 9 -280 11 -49 2 -180 7 -290 11 -110 3 -213 8 -230 9 -16 2 -35 4 -41 4
-8 1 -10 26 -8 74 1 39 5 182 9 317 3 135 8 308 10 385 3 77 7 228 10 335 13
520 23 847 24 862 1 9 37 13 91 11 25 -1 342 -4 705 -7z"/>
<path d="M15279 16055 c0 -22 -1 -444 -2 -937 0 -494 -4 -898 -8 -898 -4 0
-12 6 -16 13 -15 24 -119 110 -188 157 -72 48 -213 120 -237 120 -7 0 -25 7
-40 14 -15 8 -60 22 -100 31 -40 8 -84 18 -98 21 -14 4 -104 8 -200 9 -165 3
-250 -6 -395 -38 -95 -22 -282 -107 -373 -169 -298 -204 -514 -518 -637 -924
-40 -131 -73 -285 -91 -419 -3 -27 -8 -58 -10 -68 -21 -114 -21 -643 1 -779 2
-12 6 -50 10 -83 3 -33 8 -73 11 -88 3 -16 7 -38 9 -50 13 -91 21 -127 50
-243 88 -344 231 -611 432 -805 74 -72 188 -157 260 -193 112 -57 290 -109
421 -123 81 -9 296 -10 372 -1 188 22 401 102 535 200 133 98 239 199 306 293
18 25 33 44 35 42 1 -1 5 -27 9 -57 3 -30 10 -85 16 -121 5 -37 12 -91 15
-120 4 -30 8 -61 10 -69 1 -8 3 -27 3 -42 l1 -28 420 0 c393 0 420 1 421 18 1
22 1 5241 0 5263 -1 13 -17 18 -73 23 -72 6 -123 12 -203 21 -22 2 -89 9 -150
15 -60 6 -121 13 -135 15 -14 2 -56 6 -95 10 -38 4 -118 12 -177 19 l-108 12
-1 -41z m-542 -2180 c176 -23 340 -128 511 -324 l29 -33 -1 -867 -1 -866 -72
-96 c-152 -203 -321 -328 -498 -370 -61 -14 -210 -18 -278 -7 -128 20 -278
118 -357 233 -84 122 -166 356 -186 530 -3 33 -8 62 -9 65 -2 3 -7 55 -11 115
-16 209 -9 663 11 767 3 13 8 43 11 68 10 76 61 261 93 337 138 333 412 495
758 448z"/>
<path d="M24020 16097 c-3 -3 -41 -8 -84 -12 -43 -4 -86 -8 -95 -10 -19 -3
-141 -16 -196 -20 -47 -4 -151 -15 -182 -20 -12 -2 -57 -7 -100 -10 -43 -4
-85 -9 -94 -10 -9 -2 -52 -6 -95 -10 -43 -4 -81 -9 -84 -12 -3 -3 -5 -1195 -5
-2649 l0 -2644 417 0 c388 0 417 1 422 18 2 9 7 48 11 85 3 37 8 76 10 85 1 9
6 46 10 82 4 36 8 67 10 68 2 2 48 -41 102 -96 129 -130 239 -206 388 -267 58
-24 215 -63 287 -72 105 -13 365 -7 465 11 558 98 964 523 1139 1191 23 86 49
222 68 350 28 185 28 767 2 925 -3 14 -7 48 -11 75 -18 148 -38 247 -80 400
-122 445 -348 748 -680 913 -63 31 -208 81 -260 88 -16 3 -52 10 -80 16 -54
13 -382 17 -456 6 -189 -28 -410 -128 -574 -261 -62 -50 -171 -160 -210 -212
l-30 -38 -5 1017 c-3 560 -7 1016 -10 1013z m881 -2231 c130 -28 262 -115 341
-226 91 -128 157 -340 192 -615 24 -184 25 -689 2 -825 -3 -14 -7 -47 -11 -74
-17 -135 -61 -296 -110 -403 -129 -280 -347 -425 -639 -425 -55 0 -76 2 -141
16 -170 35 -321 138 -453 307 l-52 67 0 851 0 851 57 78 c67 90 218 244 285
290 158 108 347 146 529 108z"/>
<path d="M4728 14585 c-2 -2 -25 -6 -53 -9 -27 -4 -68 -9 -90 -12 -22 -3 -96
-19 -164 -35 -645 -157 -1109 -632 -1299 -1329 -12 -41 -23 -91 -26 -110 -3
-19 -8 -46 -11 -60 -3 -14 -8 -47 -11 -75 -4 -27 -8 -53 -10 -56 -12 -21 -21
-310 -14 -489 17 -479 204 -959 495 -1267 303 -322 725 -515 1190 -544 153 -9
492 1 538 16 6 2 30 7 52 10 92 13 304 71 370 100 17 8 59 26 95 41 154 63
386 199 478 281 l34 29 -188 265 c-103 145 -199 281 -212 301 -29 43 -19 45
-147 -37 -84 -55 -324 -175 -348 -175 -7 0 -17 -4 -22 -9 -13 -11 -129 -40
-230 -56 -92 -15 -281 -13 -372 4 -281 52 -483 206 -607 463 -95 197 -131 401
-131 743 0 345 39 570 136 781 114 247 368 439 637 481 62 10 281 10 358 0
183 -22 433 -117 620 -235 76 -47 83 -50 97 -34 8 9 74 100 147 202 74 102
162 224 197 272 l63 88 -53 40 c-28 23 -60 48 -70 56 -9 8 -22 14 -27 14 -6 0
-10 5 -10 10 0 6 -4 10 -9 10 -5 0 -33 16 -63 35 -134 90 -438 213 -598 244
-30 6 -65 12 -77 15 -11 2 -43 7 -70 11 -26 4 -59 9 -73 12 -26 6 -516 13
-522 8z"/>
<path d="M9430 14583 c-211 -30 -383 -69 -444 -99 -16 -8 -33 -14 -37 -14 -5
0 -50 -20 -101 -44 -89 -42 -235 -133 -308 -192 -56 -45 -193 -184 -236 -239
-21 -27 -41 -52 -44 -55 -19 -17 -110 -172 -155 -265 -72 -147 -122 -282 -150
-405 -19 -87 -46 -225 -50 -265 -4 -27 -8 -60 -10 -72 -7 -45 -18 -250 -18
-343 0 -246 22 -444 78 -692 28 -125 92 -302 158 -433 170 -342 454 -606 801
-745 43 -17 86 -33 95 -36 9 -2 47 -13 86 -24 38 -11 94 -24 125 -30 30 -5 69
-12 85 -15 111 -20 465 -27 588 -11 342 43 597 140 820 312 396 304 619 757
684 1384 15 148 7 583 -12 699 -2 13 -7 45 -11 70 -3 25 -17 93 -30 151 -85
380 -234 668 -464 901 -211 212 -430 336 -735 415 -31 8 -124 26 -150 29 -16
2 -43 7 -60 10 -32 7 -464 14 -505 8z m385 -721 c416 -86 610 -497 608 -1287
0 -119 -9 -297 -19 -370 -2 -16 -6 -46 -8 -65 -12 -87 -18 -120 -36 -195 -50
-209 -122 -351 -236 -461 -91 -88 -223 -153 -350 -170 -255 -34 -463 25 -614
175 -138 137 -216 315 -260 591 -6 36 -13 76 -15 90 -26 143 -25 672 0 840 2
14 7 45 10 70 4 25 11 65 17 90 5 25 12 56 14 69 12 62 68 211 106 284 49 92
163 216 241 261 60 35 167 73 232 81 28 4 51 8 53 10 7 7 212 -4 257 -13z"/>
<path d="M19465 14580 c-27 -4 -70 -10 -95 -14 -78 -11 -103 -16 -207 -46
-579 -167 -1007 -647 -1172 -1315 -11 -44 -22 -96 -25 -116 -3 -20 -8 -42 -10
-50 -5 -14 -9 -42 -23 -179 -13 -119 -9 -514 6 -625 26 -200 84 -425 148 -580
37 -90 124 -260 134 -263 5 -2 9 -8 9 -14 0 -23 131 -190 220 -279 151 -152
243 -219 433 -316 141 -71 354 -139 503 -159 27 -3 58 -8 69 -10 156 -30 631
-22 775 12 23 6 35 8 93 18 151 27 398 118 582 216 86 46 249 152 303 198 l33
28 -192 264 c-105 146 -194 267 -196 270 -2 2 -19 -4 -38 -15 -289 -169 -467
-242 -690 -282 -95 -17 -337 -23 -415 -11 -25 4 -59 10 -76 12 -50 7 -179 53
-247 87 -240 122 -416 383 -471 699 -26 152 -29 190 -14 190 7 1 565 1 1241 1
675 0 1227 4 1228 7 15 92 19 576 6 682 -27 220 -72 418 -122 544 -14 35 -25
66 -25 70 0 19 -109 221 -165 306 -199 300 -498 519 -835 611 -25 7 -49 14
-55 15 -5 2 -59 13 -120 25 -88 17 -154 22 -325 24 -118 1 -237 -1 -265 -5z
m394 -670 c275 -46 461 -237 556 -571 18 -63 21 -77 31 -146 3 -26 8 -57 10
-68 2 -11 7 -64 10 -117 l7 -98 -24 -1 c-32 -1 -1540 -1 -1557 0 -14 1 -12 42
9 181 16 108 19 122 46 215 32 116 98 254 156 331 171 225 447 325 756 274z"/>
<path d="M30738 14585 c-2 -1 -34 -5 -73 -9 -412 -38 -751 -280 -997 -711 -19
-33 -54 -100 -78 -150 -48 -97 -50 -97 -64 5 -3 23 -7 44 -10 48 -2 4 -7 23
-10 42 -6 39 -33 182 -42 220 -3 14 -7 36 -10 50 -56 282 -76 378 -79 390 -4
13 -82 15 -630 15 l-625 0 0 -327 0 -326 260 1 c143 0 262 -2 266 -5 4 -5 8
-1959 4 -2428 l0 -45 -265 0 -265 0 0 -327 0 -328 1115 0 1115 0 0 328 0 327
-371 0 c-220 0 -373 3 -376 9 -4 5 -6 291 -6 635 0 619 1 627 22 686 12 33 24
67 26 75 6 28 89 215 126 286 87 164 170 281 275 391 172 177 341 270 547 301
l57 9 1 -61 c0 -34 0 -197 0 -364 0 -269 2 -304 16 -309 12 -5 527 -8 604 -4
9 1 16 7 16 14 0 18 14 145 18 165 1 9 6 49 9 87 4 39 9 84 11 100 2 17 7 57
10 90 4 33 8 71 10 85 2 14 6 50 10 80 3 30 8 71 10 90 2 19 7 60 10 90 10 94
22 202 30 260 2 19 7 62 10 94 3 33 8 73 10 90 4 30 8 65 20 177 l7 56 -109
32 c-60 17 -138 36 -173 42 -36 5 -76 12 -90 15 -27 5 -337 14 -342 9z"/>
<path d="M34465 14580 c-101 -12 -159 -22 -220 -38 -22 -6 -51 -13 -65 -16
-49 -9 -177 -59 -285 -112 -314 -154 -580 -431 -750 -781 -50 -101 -134 -328
-149 -403 -3 -14 -12 -56 -21 -94 -8 -37 -18 -91 -21 -120 -4 -28 -8 -54 -10
-57 -25 -44 -25 -607 0 -759 3 -14 7 -41 10 -60 52 -344 191 -677 385 -920
101 -127 366 -360 409 -360 6 0 12 -4 14 -9 9 -25 347 -170 432 -185 14 -3 29
-7 33 -9 5 -3 24 -8 43 -11 19 -3 58 -10 85 -15 131 -27 236 -35 445 -35 158
0 289 7 366 20 116 19 161 29 261 55 214 56 462 167 648 291 142 95 171 122
156 139 -7 8 -87 118 -179 244 -92 127 -176 241 -186 255 l-20 26 -80 -49
c-245 -148 -480 -236 -702 -262 -255 -31 -462 -4 -651 85 -274 128 -457 407
-507 770 -3 25 -9 64 -12 88 l-6 42 34 0 c18 1 576 1 1241 1 664 0 1207 3
1208 7 15 94 19 575 6 682 -51 421 -159 718 -361 989 -260 350 -613 544 -1091
601 -84 9 -376 10 -460 0z m399 -671 c159 -29 294 -109 392 -234 89 -113 170
-321 190 -488 3 -23 7 -52 10 -64 2 -13 7 -65 10 -118 l5 -95 -33 -1 c-137 -3
-1550 -1 -1554 3 -4 5 10 150 21 211 3 15 7 37 9 50 20 110 65 246 111 337
157 311 479 464 839 399z"/>
<path d="M37574 14455 c3 -16 14 -91 26 -165 11 -74 22 -142 25 -150 2 -8 6
-37 10 -65 3 -27 7 -61 10 -75 3 -14 7 -38 9 -55 3 -16 12 -70 20 -120 14 -86
18 -111 31 -200 3 -22 10 -62 15 -90 5 -27 12 -68 15 -90 2 -22 11 -78 19
-125 8 -47 17 -101 20 -120 3 -19 8 -46 10 -60 2 -14 8 -47 12 -75 4 -27 9
-57 10 -65 2 -8 6 -35 9 -59 3 -24 13 -81 21 -128 8 -46 16 -98 18 -116 3 -17
10 -63 16 -102 7 -38 14 -83 17 -100 2 -16 13 -82 23 -145 10 -63 21 -135 25
-160 3 -25 8 -56 10 -70 3 -14 7 -38 9 -55 3 -16 14 -84 25 -150 11 -66 23
-138 26 -160 2 -22 7 -51 10 -65 3 -14 8 -45 11 -70 3 -25 7 -52 9 -60 2 -8 7
-35 10 -60 3 -25 10 -67 15 -95 5 -27 12 -70 15 -95 3 -25 12 -85 21 -135 8
-49 17 -101 19 -115 2 -14 10 -65 19 -115 8 -49 18 -110 21 -135 4 -25 9 -52
10 -60 2 -8 4 -23 4 -32 1 -17 34 -18 545 -18 613 0 549 -9 561 80 3 25 13 88
21 140 8 52 17 111 20 130 3 19 11 73 19 120 8 47 17 105 20 130 3 25 8 56 10
70 5 29 11 68 20 125 3 23 7 52 10 65 3 13 7 42 10 65 3 22 8 47 10 55 2 8 7
38 10 66 3 28 8 61 10 75 3 13 8 44 11 69 3 25 8 53 10 64 2 10 22 138 44 285
23 146 43 280 46 296 9 49 12 67 19 120 3 28 8 57 10 65 2 8 7 38 11 65 3 28
8 59 10 70 2 10 6 37 9 60 3 22 10 65 15 95 5 30 12 73 15 95 3 22 11 76 18
120 l14 80 12 -70 c6 -38 14 -86 16 -105 5 -42 19 -138 39 -275 9 -55 18 -118
21 -140 2 -22 6 -49 9 -60 2 -11 7 -42 10 -70 4 -27 9 -61 11 -75 8 -52 36
-247 41 -285 2 -22 7 -51 9 -65 6 -30 10 -60 25 -165 6 -44 13 -91 15 -105 2
-14 7 -45 10 -70 3 -25 8 -56 10 -70 2 -14 13 -88 24 -165 11 -77 32 -218 46
-312 14 -95 28 -188 30 -205 2 -18 6 -51 10 -73 8 -51 11 -72 25 -170 6 -44
13 -90 16 -102 l4 -23 555 0 c305 0 555 2 555 5 0 6 28 194 35 235 9 56 15 91
35 225 11 77 27 181 35 230 8 50 16 107 20 128 6 43 11 78 30 202 8 50 17 108
20 130 3 23 8 52 10 65 3 14 8 48 11 75 2 28 7 57 10 66 2 9 7 34 9 55 3 22
10 64 15 94 5 30 12 78 16 105 3 28 8 59 10 70 2 10 6 37 9 60 3 22 17 112 31
200 14 88 28 176 30 195 2 19 9 60 14 90 6 30 12 75 16 100 3 25 9 70 15 100
5 30 12 77 15 105 3 27 7 52 9 56 3 3 7 33 10 65 4 32 8 66 10 74 2 8 7 35 10
60 3 25 8 52 10 60 2 8 7 40 10 70 3 30 8 62 10 70 2 8 7 35 10 60 3 25 10 70
15 100 5 30 12 80 16 110 3 30 8 58 10 61 2 4 6 28 9 55 3 27 10 72 15 99 5
28 12 72 15 98 4 27 8 59 11 70 2 12 7 45 10 72 3 28 7 54 8 60 1 10 -843 15
-849 4 -2 -3 -7 -39 -10 -80 -3 -41 -8 -85 -10 -99 -2 -14 -7 -54 -10 -90 -4
-36 -8 -81 -11 -100 -5 -42 -11 -103 -19 -190 -4 -36 -8 -76 -10 -90 -2 -14
-7 -59 -10 -100 -3 -41 -8 -86 -10 -100 -2 -14 -7 -52 -10 -85 -9 -93 -15
-146 -20 -190 -2 -22 -9 -89 -15 -150 -6 -60 -12 -126 -15 -145 -2 -19 -7 -62
-10 -95 -3 -33 -8 -76 -10 -95 -3 -19 -7 -60 -9 -90 -5 -55 -12 -123 -21 -190
-2 -19 -9 -84 -15 -145 -6 -60 -12 -126 -15 -145 -2 -19 -7 -60 -10 -90 -10
-108 -15 -156 -22 -205 -3 -27 -7 -61 -8 -75 -1 -14 -6 -59 -10 -100 -4 -41
-9 -86 -10 -100 -7 -80 -17 -168 -20 -190 -6 -36 -17 -162 -17 -182 1 -10 -3
-18 -9 -18 -5 0 -10 8 -10 18 -3 31 -6 55 -27 182 -12 69 -24 143 -27 165 -2
22 -6 49 -9 60 -2 11 -7 45 -11 75 -4 30 -9 64 -11 75 -11 56 -34 196 -40 240
-3 28 -8 59 -10 70 -3 11 -16 94 -30 185 -28 180 -41 265 -74 470 -12 74 -23
151 -26 170 -2 19 -9 58 -14 85 -5 28 -12 66 -14 85 -7 50 -15 106 -27 175 -6
33 -12 71 -14 85 -2 14 -8 54 -14 90 -6 36 -13 83 -16 105 -4 22 -8 51 -11 65
-2 14 -9 54 -14 90 -5 36 -13 86 -18 112 -5 26 -7 50 -4 53 3 3 1 6 -4 6 -33
5 -867 3 -869 -2 -4 -6 -13 -47 -21 -99 -2 -19 -9 -57 -15 -85 -5 -27 -11 -64
-13 -82 -3 -18 -7 -40 -10 -50 -3 -10 -8 -36 -11 -58 -3 -23 -7 -52 -10 -65
-3 -13 -7 -40 -10 -60 -3 -20 -8 -47 -11 -60 -2 -14 -7 -40 -10 -59 -4 -35
-10 -66 -19 -111 -2 -13 -7 -40 -10 -60 -3 -20 -7 -47 -10 -60 -5 -27 -12 -69
-19 -110 -2 -14 -11 -63 -20 -110 -8 -47 -18 -101 -20 -120 -3 -19 -7 -45 -10
-56 -2 -12 -7 -39 -10 -60 -8 -50 -55 -322 -61 -354 -3 -13 -7 -42 -10 -65 -3
-22 -8 -47 -10 -55 -2 -8 -7 -35 -10 -60 -4 -24 -8 -47 -10 -50 -2 -3 -6 -28
-9 -55 -4 -27 -8 -57 -10 -65 -3 -8 -7 -31 -10 -50 -3 -19 -13 -75 -21 -125
-9 -49 -23 -130 -31 -180 -8 -49 -17 -101 -20 -115 -2 -14 -7 -44 -10 -67 -3
-23 -11 -66 -18 -95 l-12 -53 -8 85 c-5 47 -10 93 -11 102 -2 9 -6 54 -10 100
-4 46 -8 90 -10 98 -2 8 -6 53 -10 100 -3 47 -10 112 -15 145 -4 33 -8 67 -8
75 1 8 -2 35 -5 60 -3 25 -9 77 -12 115 -3 39 -8 81 -10 95 -3 14 -7 54 -10
90 -3 36 -8 81 -10 100 -2 19 -7 64 -10 100 -3 36 -8 81 -10 100 -3 19 -7 62
-10 95 -4 33 -8 74 -10 90 -2 17 -6 62 -10 100 -4 39 -8 81 -10 95 -2 14 -7
61 -11 105 -3 44 -8 87 -9 95 -1 8 -6 53 -10 100 -4 47 -9 93 -10 102 -2 9 -6
48 -10 85 -3 37 -8 84 -10 103 -6 55 -22 210 -30 290 -3 30 -7 75 -10 100 -3
25 -7 70 -10 100 -7 75 -15 148 -20 190 -3 19 -7 62 -11 95 -3 33 -8 62 -11
65 -2 3 -202 5 -444 5 l-439 0 4 -30z"/>
</g>
</svg>
